# Blender v2.79 (sub 0) OBJ File: 'platform.blend'
# www.blender.org
mtllib platform.mtl
o Cube
v 2.699904 0.007020 -2.000476
v 2.996903 0.007020 -1.703477
v 2.757845 0.007020 -1.994770
v 2.813560 0.007020 -1.977869
v 2.864908 0.007020 -1.950423
v 2.909914 0.007020 -1.913487
v 2.946849 0.007020 -1.868481
v 2.974295 0.007020 -1.817134
v 2.991196 0.007020 -1.761419
v 2.996903 0.007020 1.704575
v 2.699904 0.007020 2.001574
v 2.991196 0.007020 1.762517
v 2.974295 0.007020 1.818232
v 2.946849 0.007020 1.869579
v 2.909914 0.007020 1.914585
v 2.864908 0.007020 1.951521
v 2.813560 0.007020 1.978967
v 2.757845 0.007020 1.995867
v -2.701148 0.007020 2.001574
v -2.998147 0.007020 1.704575
v -2.759089 0.007020 1.995867
v -2.814805 0.007020 1.978966
v -2.866152 0.007020 1.951521
v -2.911158 0.007020 1.914585
v -2.948094 0.007020 1.869579
v -2.975539 0.007020 1.818232
v -2.992440 0.007020 1.762516
v -2.998147 0.007020 -1.703478
v -2.701147 0.007020 -2.000477
v -2.992440 0.007020 -1.761419
v -2.975539 0.007020 -1.817134
v -2.948093 0.007020 -1.868481
v -2.911157 0.007020 -1.913488
v -2.866151 0.007020 -1.950423
v -2.814804 0.007020 -1.977869
v -2.759089 0.007020 -1.994770
v 2.753902 -0.131953 -2.040486
v 3.056841 -0.131953 -1.737547
v 2.813002 -0.131953 -2.034665
v 2.869832 -0.131953 -2.017426
v 2.922206 -0.131953 -1.989431
v 2.968112 -0.131953 -1.951757
v 3.005786 -0.131953 -1.905851
v 3.033781 -0.131953 -1.853477
v 3.051020 -0.131953 -1.796647
v 3.056841 -0.131953 1.738667
v 2.753902 -0.131953 2.041606
v 3.051020 -0.131953 1.797767
v 3.033781 -0.131953 1.854596
v 3.005786 -0.131953 1.906971
v 2.968112 -0.131953 1.952877
v 2.922206 -0.131953 1.990551
v 2.869832 -0.131953 2.018546
v 2.813002 -0.131953 2.035785
v -2.755171 -0.131953 2.041605
v -3.058110 -0.131953 1.738666
v -2.814271 -0.131953 2.035785
v -2.871101 -0.131953 2.018546
v -2.923475 -0.131953 1.990551
v -2.969381 -0.131953 1.952877
v -3.007056 -0.131953 1.906970
v -3.035050 -0.131953 1.854596
v -3.052289 -0.131953 1.797767
v -3.058110 -0.131953 -1.737547
v -2.755170 -0.131953 -2.040486
v -3.052289 -0.131953 -1.796648
v -3.035049 -0.131953 -1.853477
v -3.007055 -0.131953 -1.905851
v -2.969380 -0.131953 -1.951757
v -2.923474 -0.131953 -1.989432
v -2.871100 -0.131953 -2.017426
v -2.814270 -0.131953 -2.034665
v 3.056841 0.133244 -1.737546
v 2.753902 0.133244 -2.040485
v 3.051021 0.133244 -1.796647
v 3.033782 0.133244 -1.853476
v 3.005787 0.133244 -1.905850
v 2.968112 0.133244 -1.951757
v 2.922206 0.133244 -1.989431
v 2.869832 0.133244 -2.017426
v 2.813003 0.133244 -2.034665
v 2.753901 0.133244 2.041606
v 3.056840 0.133244 1.738667
v 2.813002 0.133244 2.035785
v 2.869831 0.133244 2.018546
v 2.922205 0.133244 1.990552
v 2.968112 0.133244 1.952878
v 3.005786 0.133244 1.906971
v 3.033781 0.133244 1.854597
v 3.051019 0.133244 1.797768
v -3.058110 0.133244 1.738666
v -2.755171 0.133244 2.041605
v -3.052289 0.133244 1.797767
v -3.035050 0.133244 1.854596
v -3.007056 0.133244 1.906970
v -2.969381 0.133244 1.952877
v -2.923475 0.133244 1.990551
v -2.871101 0.133244 2.018546
v -2.814271 0.133244 2.035784
v -2.755171 0.133244 -2.040486
v -3.058110 0.133244 -1.737547
v -2.814271 0.133244 -2.034665
v -2.871100 0.133244 -2.017426
v -2.923475 0.133244 -1.989431
v -2.969381 0.133244 -1.951757
v -3.007055 0.133244 -1.905851
v -3.035050 0.133244 -1.853477
v -3.052289 0.133244 -1.796647
v -2.759089 0.133244 -1.994770
v -2.866151 0.133244 -1.950423
v -2.814804 0.133244 -1.977869
v -2.911157 0.133244 -1.913487
v -2.948093 0.133244 -1.868481
v -2.975539 0.133244 -1.817134
v -2.992440 0.133244 -1.761419
v -2.998147 0.133244 -1.703477
v -2.998147 0.133244 1.704575
v -2.992440 0.133244 1.762516
v -2.948094 0.133244 1.869579
v -2.975539 0.133244 1.818231
v -2.911158 0.133244 1.914585
v -2.866152 0.133244 1.951521
v -2.701148 0.133244 2.001574
v -2.759090 0.133244 1.995867
v -2.814805 0.133244 1.978966
v 2.864907 0.133244 1.951521
v 2.864908 0.133244 -1.950423
v 2.813561 0.133244 -1.977868
v 2.813560 0.133244 1.978967
v 2.757845 0.133244 -1.994769
v 2.757845 0.133244 1.995868
v 2.699904 0.133244 -2.000476
v 2.699903 0.133244 2.001575
v -2.701148 0.133244 -2.000477
v 2.909914 0.133244 -1.913487
v 2.909914 0.133244 1.914586
v 2.946849 0.133244 -1.868481
v 2.946849 0.133244 1.869579
v 2.974295 0.133244 -1.817134
v 2.991196 0.133244 1.762517
v 2.974295 0.133244 1.818232
v 2.991196 0.133244 -1.761419
v 2.996903 0.133244 -1.703477
v 2.996903 0.133244 1.704575
vn 0.0000 1.0000 -0.0000
vn 1.0000 0.0000 0.0000
vn 0.0000 0.0000 -1.0000
vn -0.0980 -0.0000 0.9952
vn -0.2903 -0.0000 0.9569
vn -0.4714 0.0000 0.8819
vn -0.6344 0.0000 0.7730
vn -0.7730 0.0000 0.6344
vn -0.8819 -0.0000 0.4714
vn -0.9569 0.0000 0.2903
vn -0.9952 -0.0000 0.0980
vn -0.9952 -0.0000 -0.0980
vn -0.9569 -0.0000 -0.2903
vn -0.8819 0.0000 -0.4714
vn -0.7730 0.0000 -0.6344
vn -0.6344 0.0000 -0.7730
vn -0.4714 0.0000 -0.8819
vn -0.2903 0.0000 -0.9569
vn -0.0980 0.0000 -0.9952
vn 0.0980 0.0000 -0.9952
vn 0.2903 0.0000 -0.9569
vn 0.4714 0.0000 -0.8819
vn 0.6344 0.0000 -0.7730
vn 0.7730 0.0000 -0.6344
vn 0.8819 -0.0000 -0.4714
vn 0.9569 -0.0000 -0.2903
vn 0.9952 0.0000 -0.0980
vn 0.9952 0.0000 0.0980
vn 0.9569 0.0000 0.2903
vn 0.8819 0.0000 0.4714
vn 0.7730 0.0000 0.6344
vn 0.6344 0.0000 0.7730
vn 0.4714 0.0000 0.8819
vn 0.2903 0.0000 0.9569
vn 0.0980 -0.0000 0.9952
vn -1.0000 -0.0000 0.0000
vn 0.0000 -1.0000 0.0000
vn 0.0000 -0.0000 1.0000
usemtl Material
s off
f 11//1 15//1 10//1
f 20//2 116//2 117//2
f 19//3 133//3 11//3
f 3//4 132//4 1//4
f 4//5 130//5 3//5
f 5//6 128//6 4//6
f 6//7 127//7 5//7
f 7//8 135//8 6//8
f 8//9 137//9 7//9
f 9//10 139//10 8//10
f 2//11 142//11 9//11
f 12//12 144//12 10//12
f 13//13 140//13 12//13
f 14//14 141//14 13//14
f 15//15 138//15 14//15
f 16//16 136//16 15//16
f 17//17 126//17 16//17
f 18//18 129//18 17//18
f 11//19 131//19 18//19
f 21//20 123//20 19//20
f 22//21 124//21 21//21
f 23//22 125//22 22//22
f 24//23 122//23 23//23
f 25//24 121//24 24//24
f 26//25 119//25 25//25
f 27//26 120//26 26//26
f 20//27 118//27 27//27
f 28//28 115//28 116//28
f 30//29 114//29 115//29
f 31//30 113//30 114//30
f 32//31 112//31 113//31
f 33//32 110//32 112//32
f 34//33 111//33 110//33
f 35//34 109//34 111//34
f 36//35 134//35 109//35
f 10//36 143//36 2//36
f 37//3 100//3 74//3
f 64//37 69//37 65//37
f 91//36 64//36 56//36
f 123//1 124//1 92//1
f 82//38 55//38 47//38
f 74//20 39//20 37//20
f 81//21 40//21 39//21
f 80//22 41//22 40//22
f 79//23 42//23 41//23
f 78//24 43//24 42//24
f 77//25 44//25 43//25
f 76//26 45//26 44//26
f 75//27 38//27 45//27
f 83//28 48//28 46//28
f 90//29 49//29 48//29
f 89//30 50//30 49//30
f 88//31 51//31 50//31
f 87//32 52//32 51//32
f 86//33 53//33 52//33
f 85//34 54//34 53//34
f 84//35 47//35 54//35
f 92//4 57//4 55//4
f 99//5 58//5 57//5
f 98//6 59//6 58//6
f 97//7 60//7 59//7
f 96//8 61//8 60//8
f 95//9 62//9 61//9
f 94//10 63//10 62//10
f 93//11 56//11 63//11
f 64//12 108//12 66//12
f 66//13 107//13 67//13
f 67//14 106//14 68//14
f 68//15 105//15 69//15
f 69//16 104//16 70//16
f 70//17 103//17 71//17
f 71//18 102//18 72//18
f 72//19 100//19 65//19
f 73//2 46//2 38//2
f 29//38 132//38 134//38
f 132//1 130//1 74//1
f 3//1 1//1 2//1
f 1//1 29//1 11//1
f 29//1 36//1 35//1
f 35//1 34//1 31//1
f 34//1 33//1 31//1
f 33//1 32//1 31//1
f 31//1 30//1 28//1
f 28//1 20//1 19//1
f 20//1 27//1 21//1
f 27//1 26//1 23//1
f 26//1 25//1 23//1
f 25//1 24//1 23//1
f 23//1 22//1 21//1
f 21//1 19//1 20//1
f 19//1 11//1 29//1
f 11//1 18//1 17//1
f 17//1 16//1 11//1
f 16//1 15//1 11//1
f 15//1 14//1 10//1
f 14//1 13//1 10//1
f 13//1 12//1 10//1
f 10//1 2//1 1//1
f 2//1 9//1 7//1
f 9//1 8//1 7//1
f 7//1 6//1 5//1
f 5//1 4//1 7//1
f 4//1 3//1 7//1
f 1//1 11//1 10//1
f 29//1 35//1 31//1
f 31//1 28//1 29//1
f 23//1 21//1 27//1
f 19//1 29//1 28//1
f 2//1 7//1 3//1
f 20//2 28//2 116//2
f 19//3 123//3 133//3
f 3//4 130//4 132//4
f 4//5 128//5 130//5
f 5//6 127//6 128//6
f 6//7 135//7 127//7
f 7//8 137//8 135//8
f 8//9 139//9 137//9
f 9//10 142//10 139//10
f 2//11 143//11 142//11
f 12//12 140//12 144//12
f 13//13 141//13 140//13
f 14//14 138//14 141//14
f 15//15 136//15 138//15
f 16//16 126//16 136//16
f 17//17 129//17 126//17
f 18//18 131//18 129//18
f 11//19 133//19 131//19
f 21//20 124//20 123//20
f 22//21 125//21 124//21
f 23//22 122//22 125//22
f 24//23 121//23 122//23
f 25//24 119//24 121//24
f 26//25 120//25 119//25
f 27//26 118//26 120//26
f 20//27 117//27 118//27
f 28//28 30//28 115//28
f 30//29 31//29 114//29
f 31//30 32//30 113//30
f 32//31 33//31 112//31
f 33//32 34//32 110//32
f 34//33 35//33 111//33
f 35//34 36//34 109//34
f 36//35 29//35 134//35
f 10//36 144//36 143//36
f 37//3 65//3 100//3
f 65//37 37//37 47//37
f 37//37 39//37 38//37
f 47//37 37//37 46//37
f 39//37 40//37 41//37
f 41//37 42//37 43//37
f 43//37 44//37 41//37
f 44//37 45//37 41//37
f 45//37 38//37 39//37
f 38//37 46//37 37//37
f 46//37 48//37 49//37
f 49//37 50//37 53//37
f 50//37 51//37 53//37
f 51//37 52//37 53//37
f 53//37 54//37 47//37
f 47//37 55//37 65//37
f 55//37 57//37 61//37
f 65//37 55//37 64//37
f 57//37 58//37 59//37
f 59//37 60//37 61//37
f 61//37 62//37 63//37
f 63//37 56//37 61//37
f 56//37 64//37 55//37
f 61//37 56//37 55//37
f 64//37 66//37 67//37
f 67//37 68//37 69//37
f 69//37 70//37 71//37
f 71//37 72//37 69//37
f 72//37 65//37 69//37
f 39//37 41//37 45//37
f 46//37 49//37 53//37
f 53//37 47//37 46//37
f 57//37 59//37 61//37
f 64//37 67//37 69//37
f 91//36 101//36 64//36
f 83//1 73//1 144//1
f 73//1 143//1 144//1
f 89//1 90//1 141//1
f 90//1 83//1 140//1
f 87//1 88//1 138//1
f 88//1 89//1 138//1
f 85//1 86//1 126//1
f 86//1 87//1 136//1
f 82//1 84//1 131//1
f 84//1 85//1 129//1
f 131//1 84//1 129//1
f 99//1 92//1 124//1
f 92//1 82//1 133//1
f 97//1 98//1 122//1
f 98//1 99//1 125//1
f 122//1 98//1 125//1
f 95//1 96//1 119//1
f 96//1 97//1 121//1
f 119//1 96//1 121//1
f 93//1 94//1 120//1
f 94//1 95//1 119//1
f 117//1 91//1 118//1
f 91//1 93//1 118//1
f 94//1 119//1 120//1
f 92//1 133//1 123//1
f 133//1 82//1 131//1
f 86//1 136//1 126//1
f 90//1 140//1 141//1
f 83//1 144//1 140//1
f 120//1 118//1 93//1
f 89//1 141//1 138//1
f 121//1 97//1 122//1
f 87//1 138//1 136//1
f 85//1 126//1 129//1
f 124//1 125//1 99//1
f 82//38 92//38 55//38
f 74//20 81//20 39//20
f 81//21 80//21 40//21
f 80//22 79//22 41//22
f 79//23 78//23 42//23
f 78//24 77//24 43//24
f 77//25 76//25 44//25
f 76//26 75//26 45//26
f 75//27 73//27 38//27
f 83//28 90//28 48//28
f 90//29 89//29 49//29
f 89//30 88//30 50//30
f 88//31 87//31 51//31
f 87//32 86//32 52//32
f 86//33 85//33 53//33
f 85//34 84//34 54//34
f 84//35 82//35 47//35
f 92//4 99//4 57//4
f 99//5 98//5 58//5
f 98//6 97//6 59//6
f 97//7 96//7 60//7
f 96//8 95//8 61//8
f 95//9 94//9 62//9
f 94//10 93//10 63//10
f 93//11 91//11 56//11
f 64//12 101//12 108//12
f 66//13 108//13 107//13
f 67//14 107//14 106//14
f 68//15 106//15 105//15
f 69//16 105//16 104//16
f 70//17 104//17 103//17
f 71//18 103//18 102//18
f 72//19 102//19 100//19
f 73//2 83//2 46//2
f 29//38 1//38 132//38
f 101//1 91//1 117//1
f 101//1 117//1 116//1
f 107//1 108//1 114//1
f 108//1 101//1 115//1
f 105//1 106//1 113//1
f 106//1 107//1 113//1
f 103//1 104//1 110//1
f 104//1 105//1 112//1
f 100//1 102//1 109//1
f 102//1 103//1 111//1
f 109//1 102//1 111//1
f 81//1 74//1 130//1
f 74//1 100//1 134//1
f 79//1 80//1 127//1
f 80//1 81//1 128//1
f 127//1 80//1 128//1
f 77//1 78//1 137//1
f 78//1 79//1 135//1
f 137//1 78//1 135//1
f 75//1 76//1 139//1
f 76//1 77//1 137//1
f 143//1 73//1 142//1
f 73//1 75//1 142//1
f 76//1 137//1 139//1
f 74//1 134//1 132//1
f 134//1 100//1 109//1
f 104//1 112//1 110//1
f 108//1 115//1 114//1
f 101//1 116//1 115//1
f 139//1 142//1 75//1
f 107//1 114//1 113//1
f 135//1 79//1 127//1
f 105//1 113//1 112//1
f 103//1 110//1 111//1
f 130//1 128//1 81//1
